<svg width="120" height="26" viewBox="0 0 120 26" fill="none" xmlns="http://www.w3.org/2000/svg">
<g filter="url(#filter0_d_0_38)">
<path fill-rule="evenodd" clip-rule="evenodd" d="M37.8299 13.5084C37.1757 13.2206 36.5308 12.8972 35.8953 12.5383L34 15.4206C34.6654 15.8019 35.3888 16.1514 36.1701 16.4692C36.9514 16.7869 37.7738 17.0598 38.6374 17.2879C39.5009 17.5159 40.4037 17.6916 41.3458 17.815C42.2879 17.9383 43.2523 18 44.2393 18C45.7346 18 47.0916 17.8598 48.3103 17.5794C49.529 17.2991 50.5701 16.8879 51.4336 16.3458C52.2972 15.8037 52.9626 15.1383 53.4299 14.3495C53.8972 13.5607 54.1308 12.6617 54.1308 11.6523C54.1308 10.8972 53.9925 10.215 53.7159 9.60561C53.4393 8.99626 53.0318 8.47664 52.4935 8.04673C51.9551 7.61682 51.2879 7.28598 50.4916 7.05421C49.6953 6.82243 48.7813 6.70654 47.7495 6.70654C47.2037 6.70654 46.6411 6.73458 46.0617 6.79065C45.4822 6.84673 44.914 6.90841 44.357 6.9757L43.5411 7.07243L42.7645 7.16075C42.2598 7.21682 41.8131 7.24486 41.4243 7.24486C40.4598 7.24486 39.7421 7.07851 39.271 6.74579C38.8 6.41308 38.5645 5.98505 38.5645 5.46168C38.5645 5.19252 38.6374 4.9215 38.7832 4.6486C38.929 4.3757 39.1888 4.12897 39.5626 3.90841C39.9365 3.68785 40.4393 3.50654 41.071 3.36449C41.7028 3.22243 42.5084 3.1514 43.4879 3.1514C44.1757 3.1514 44.8505 3.19065 45.5121 3.26916C46.1738 3.34766 46.8149 3.4542 47.4355 3.58878C48.0561 3.72337 48.6505 3.88224 49.2187 4.06542C49.7869 4.2486 50.3178 4.4486 50.8112 4.66542L52.3701 1.79439C51.772 1.52523 51.1252 1.28038 50.4299 1.05981C49.7346 0.839251 49.0112 0.650468 48.2598 0.493458C47.5084 0.336448 46.7365 0.214954 45.9439 0.128972C45.1514 0.0429902 44.3626 0 43.5776 0C42.4935 0 41.5271 0.0766347 40.6785 0.229907C39.8299 0.383178 39.0822 0.594391 38.4355 0.863551C37.7888 1.13271 37.2374 1.45233 36.7813 1.82243C36.3252 2.19253 35.9533 2.59252 35.6654 3.02243C35.3776 3.45234 35.1682 3.9028 35.0374 4.37383C34.9065 4.84486 34.8411 5.31962 34.8411 5.79813C34.8411 6.60561 35.0056 7.31215 35.3346 7.91776C35.6636 8.52337 36.1065 9.02804 36.6636 9.43178C37.2206 9.83552 37.8598 10.1383 38.5813 10.3402C39.3028 10.5421 40.0561 10.643 40.8411 10.643C41.3122 10.643 41.8149 10.6112 42.3495 10.5477C42.8841 10.4841 43.4262 10.415 43.9757 10.3402L44.7958 10.2322L45.6075 10.1327C46.1458 10.0692 46.6579 10.0374 47.1439 10.0374C48.2505 10.0374 49.0692 10.2224 49.6 10.5925C50.1308 10.9626 50.3963 11.4654 50.3963 12.1009C50.3963 12.4972 50.2897 12.8635 50.0766 13.2C49.8635 13.5365 49.5234 13.8262 49.0561 14.0692C48.5888 14.3122 47.9851 14.5028 47.2449 14.6411C46.5047 14.7794 45.6075 14.8486 44.5533 14.8486C43.6785 14.8486 42.8542 14.7963 42.0804 14.6916C41.3065 14.5869 40.5682 14.4355 39.8654 14.2374C39.1626 14.0393 38.4841 13.7963 37.8299 13.5084ZM4 0.224299H7.57757V17.7533H4V0.224299ZM12.086 0.224299H15.6411L26.5645 5.94392V0.224299H30.1196V17.7533H26.5645V9.71215L15.6411 4.02617V17.7533H12.086V0.224299ZM57.3832 0.224299H60.9383V9.88037C60.9383 10.6729 61.0467 11.3776 61.2636 11.9944C61.4804 12.6112 61.8037 13.1327 62.2336 13.5589C62.6636 13.985 63.1963 14.3084 63.8318 14.529C64.4673 14.7495 65.2075 14.8598 66.0523 14.8598C66.8897 14.8598 67.628 14.7495 68.2673 14.529C68.9065 14.3084 69.4411 13.985 69.871 13.5589C70.3009 13.1327 70.6243 12.6112 70.8411 11.9944C71.0579 11.3776 71.1664 10.6729 71.1664 9.88037V0.224299H74.7215V10.3065C74.7215 11.4579 74.5271 12.5047 74.1383 13.4467C73.7495 14.3888 73.1851 15.1963 72.4449 15.8692C71.7047 16.5421 70.7981 17.0617 69.7252 17.428C68.6523 17.7944 67.428 17.9776 66.0523 17.9776C64.6766 17.9776 63.4523 17.7944 62.3794 17.428C61.3065 17.0617 60.4 16.5421 59.6598 15.8692C58.9196 15.1963 58.3551 14.3888 57.9664 13.4467C57.5776 12.5047 57.3832 11.4579 57.3832 10.3065V0.224299ZM87.9664 0.224299H79.0505V17.7533H82.6056V12.7626L88.0897 12.7738L91.3869 17.7533H95.7383L91.9252 12.1458C92.5907 11.8916 93.1701 11.572 93.6636 11.1869C94.157 10.8019 94.5664 10.3626 94.8916 9.86916C95.2168 9.3757 95.4579 8.83552 95.615 8.2486C95.772 7.66168 95.8505 7.04299 95.8505 6.39252C95.8505 5.42803 95.6916 4.56449 95.3738 3.80187C95.0561 3.03925 94.572 2.39253 93.9215 1.86168C93.271 1.33084 92.4523 0.925235 91.4654 0.64486C90.4785 0.364485 89.3122 0.224299 87.9664 0.224299ZM88.0561 9.68972C88.729 9.68972 89.3178 9.61122 89.8224 9.45421C90.3271 9.2972 90.7495 9.07664 91.0897 8.79252C91.4299 8.50841 91.6841 8.16262 91.8523 7.75514C92.0206 7.34766 92.1047 6.89346 92.1047 6.39252C92.1047 5.41308 91.7682 4.65608 91.0953 4.1215C90.4224 3.58691 89.4093 3.31963 88.0561 3.31963H82.6056V9.68972H88.0561ZM114.983 0.224299H100.056V17.7533H115.219V14.6467H103.611V9.76822H113.682V6.84112H103.611V3.34206H114.983V0.224299Z" fill="#2C2830"/>
</g>
<defs>
<filter id="filter0_d_0_38" x="0" y="0" width="119.219" height="26" filterUnits="userSpaceOnUse" color-interpolation-filters="sRGB">
<feFlood flood-opacity="0" result="BackgroundImageFix"/>
<feColorMatrix in="SourceAlpha" type="matrix" values="0 0 0 0 0 0 0 0 0 0 0 0 0 0 0 0 0 0 127 0" result="hardAlpha"/>
<feOffset dy="4"/>
<feGaussianBlur stdDeviation="2"/>
<feComposite in2="hardAlpha" operator="out"/>
<feColorMatrix type="matrix" values="0 0 0 0 0 0 0 0 0 0 0 0 0 0 0 0 0 0 0.25 0"/>
<feBlend mode="normal" in2="BackgroundImageFix" result="effect1_dropShadow_0_38"/>
<feBlend mode="normal" in="SourceGraphic" in2="effect1_dropShadow_0_38" result="shape"/>
</filter>
</defs>
</svg>
